<svg xmlns="http://www.w3.org/2000/svg" xmlns:xlink="http://www.w3.org/1999/xlink" width="720" zoomAndPan="magnify" viewBox="0 0 540 540.000001" height="720" preserveAspectRatio="xMidYMid meet" version="1.0"><defs><clipPath id="c40e76827f"><path d="M 0.5 0 L 539.5 0 L 539.5 539 L 0.5 539 Z M 0.5 0 " clip-rule="nonzero"/></clipPath></defs><path stroke-linecap="butt" transform="matrix(1.392065, 0, 0, 1.392065, -22.313886, -22.812941)" fill-opacity="1" fill="#e8ebef" fill-rule="nonzero" stroke-linejoin="miter" d="M 230.50106 46.999399 L 241.500905 46.999399 L 251.498978 49.999101 L 257.501189 49.999101 L 265.501331 52.998804 L 267.998745 55.499024 L 269.999482 58.498726 L 272.000219 72.50108 L 275.499405 76.000265 L 279.500879 76.999231 L 296.500129 87.999075 L 303.501305 89.000847 L 314.50115 84.000407 L 321.499521 82.998636 L 324.499223 84.000407 L 334.999585 94.500769 L 337.999288 100.000692 C 339.800793 99.265498 340.465835 99.767787 340.000025 101.49914 C 343.866807 103.634569 345.867544 107.633237 345.99943 113.500756 L 337.000323 129.501041 L 337.000323 135.500446 L 342.000762 145.501325 L 345.000465 156.50117 L 348.49965 160.999321 L 367.000154 168.000498 L 369.000891 171.499683 C 368.201158 174.698617 368.532276 176.699355 369.999857 177.499088 L 370.998822 195.50011 L 369.000891 204.499217 L 364.499935 209.000174 L 351.499353 211.999877 L 345.99943 216.500834 L 342.000762 230.500381 L 340.000025 232.501118 L 340.000025 235.500821 L 337.000323 241.500226 L 337.000323 244.499929 L 347.001202 260.500213 L 347.001202 265.500653 C 341.40026 275.232148 334.567449 283.734579 326.49996 290.999528 L 319.498784 292.001299 L 309.500711 288.998791 L 307.499973 287.00086 L 300.498797 285.999088 L 296.999611 287.00086 C 297.731999 288.799559 297.232516 289.467406 295.501163 288.998791 L 272.000219 303.500627 L 269.999482 319.500911 L 265.501331 325.000834 L 248.499275 328.999502 L 230.50106 330.001273 L 223.999366 322.500614 L 218.998926 311.001286 C 217.399459 309.867629 214.565315 309.533705 210.499301 309.999515 L 202.998642 305.501364 C 201.334635 303.166703 201.000711 299.499153 201.999676 294.498713 C 203.268026 291.43447 206.433287 290.26714 211.501073 290.999528 L 214.500775 292.001299 L 225.50062 292.001299 L 226.499586 290.999528 L 242.49987 290.000562 L 263.500594 282.999385 L 287.501021 268.999838 L 302.999017 253.499036 L 304.999754 250.499334 L 315.000633 236.499786 L 320.001073 225.499942 L 320.001073 222.500239 L 321.999004 220.499502 L 326.999443 195.50011 L 326.999443 180.498791 L 324.998706 173.50042 L 323.999741 161.498804 L 312.999896 136.499411 C 307.398954 127.099034 300.566143 118.933333 292.498654 111.999502 L 271.500736 97.000989 L 252.500749 89.000847 L 248.499275 89.000847 L 246.501344 87.00011 L 240.499133 87.00011 L 228.500323 84.000407 L 205.498862 84.000407 L 201.999676 81.99967 L 201.999676 71.499308 L 205.498862 67.001157 L 210.499301 65.00042 L 215.499741 65.00042 L 220.999663 60.499463 L 226.000103 49.999101 L 228.00084 49.999101 C 227.265646 48.200402 227.767935 47.532554 229.499288 48.00117 Z M 231.000543 48.00117 C 226.334027 51.999838 223.0004 57.000278 220.999663 62.999683 L 217.999961 65.999386 L 212.999521 65.999386 L 207.000116 68.000123 C 203.666489 70.00086 202.3336 74.333452 202.998642 81.000705 L 207.999081 82.998636 C 210.667666 83.666483 212.665597 83.33256 214.001293 81.99967 C 247.999792 83.33256 274.332074 92.665591 293.000943 109.998765 C 301.666127 117.998907 309.332346 127.665863 315.999598 138.999631 L 323.999741 157.000653 L 328.001215 176.00064 L 328.001215 200.001067 L 323.999741 220.000019 C 319.333225 231.998829 313.33382 242.998674 305.998719 252.999554 C 296.000646 265.666212 283.000064 275.667091 266.99978 282.999385 L 247.999792 290.000562 L 237.998913 292.001299 C 234.000245 291.333451 231.665584 291.667375 231.000543 293.000265 L 206.00115 293.000265 L 202.998642 296.998933 L 204.000413 306.000847 L 209.000853 307.998778 L 217.999961 309.000549 L 220.999663 312.999217 C 223.0004 319.66647 226.334027 325.000834 231.000543 328.999502 L 247.000827 328.000536 L 264.999042 323.999062 L 269.000517 317.999657 L 271.001254 303.001144 L 277.000659 298.000704 L 290.001241 292.001299 L 299.000348 285.000122 L 305.998719 285.000122 L 317.00137 290.000562 C 321.000038 290.665604 324.333665 290.334486 326.999443 288.998791 L 345.000465 266.999101 L 345.000465 260.999696 L 334.999585 246.001183 L 334.999585 241.999709 L 340.998991 228.999127 L 345.000465 214.999579 L 350.99987 211.000911 L 366.001189 206.000472 L 367.99912 203.000769 C 367.334078 198.999295 367.668002 196.66744 369.000891 195.999592 L 367.99912 173.999903 L 367.000154 171.999166 C 362.333639 167.33265 356.334233 164.332947 348.999133 163.000058 L 343.998693 159.00139 L 340.998991 147.998739 L 334.999585 135.000963 L 334.999585 130.000524 L 343.998693 114.999205 L 342.999728 108.000834 L 331.000917 92.999515 L 323.000775 84.999373 L 317.00137 84.999373 L 302.999017 90.998778 L 296.000646 89.000847 C 290.001241 83.666483 283.000064 79.667815 274.999922 76.999231 L 269.999482 71.998791 L 266.99978 57.000278 L 264.999042 54.000575 L 255.999935 51.000873 L 245.00009 49.999101 L 239.99965 48.00117 Z M 231.000543 48.00117 " stroke="#e8ebef" stroke-width="1" stroke-opacity="1" stroke-miterlimit="4"/><path stroke-linecap="butt" transform="matrix(1.392065, 0, 0, 1.392065, -22.313886, -22.812941)" fill-opacity="1" fill="#e8ebef" fill-rule="nonzero" stroke-linejoin="miter" d="M 140.498758 94.001287 L 216.498706 95.000252 L 217.500478 95.999218 L 231.500025 95.999218 L 234.999211 97.500472 L 228.500323 97.999955 L 227.501357 97.000989 L 211.501073 97.000989 L 210.499301 95.999218 L 110.498926 95.999218 L 107.998706 97.000989 C 108.33263 100.132578 109.833885 102.467239 112.499663 103.99936 L 149.001189 133.000226 C 148.265996 134.798925 148.765478 135.466773 150.499637 135.000963 C 155.766655 141.067714 162.099984 146.065348 169.499625 149.999476 L 223.499883 149.999476 C 231.766603 152.732601 238.599415 156.899634 244.001124 162.500575 L 252.001267 178.50086 L 252.001267 196.499075 C 249.400028 205.899453 244.567953 213.066188 237.49943 217.999282 L 226.499586 223.998687 L 217.500478 225.999424 L 175.49903 225.999424 L 172.99881 227.001196 L 172.99881 276.500497 L 175.49903 279.000717 C 178.70077 278.200984 180.698701 278.532101 181.501241 279.999683 L 210.499301 279.999683 L 211.501073 279.000717 L 230.50106 279.000717 L 241.500905 276.99998 L 241.500905 277.998946 C 239.365476 279.533873 236.034655 279.867797 231.500025 279.000717 L 226.499586 280.998648 L 176.500801 280.998648 L 172.99881 278.501235 L 171.000879 274.49976 L 171.000879 229.49861 L 172.99881 225.000459 L 216.498706 225.000459 C 217.365786 223.465531 219.366523 223.134414 222.500918 223.998687 C 232.367105 221.201023 239.867764 216.032218 245.00009 208.500692 L 250.999495 194.501144 L 250.999495 180.498791 C 249.332682 172.167531 245.833497 165.665837 240.499133 160.999321 C 235.765271 156.400151 229.765866 153.066525 222.500918 151.001248 L 168.500659 151.001248 L 154.501112 141.000368 L 107.998706 101.49914 L 106.000775 97.500472 L 109.499961 95.000252 L 139.499793 95.000252 Z M 236.500465 97.999955 C 240.499133 97.000989 242.999353 97.500472 244.001124 99.501209 L 241.500905 100.000692 L 236.500465 98.99892 Z M 236.500465 97.999955 " stroke="#e8ebef" stroke-width="1" stroke-opacity="1" stroke-miterlimit="4"/><path stroke-linecap="butt" transform="matrix(1.392065, 0, 0, 1.392065, -22.313886, -22.812941)" fill-opacity="1" fill="#e8ebef" fill-rule="nonzero" stroke-linejoin="miter" d="M 245.499573 100.000692 L 252.500749 100.999657 L 254.49868 103.000394 L 257.501189 103.000394 L 271.500736 109.998765 L 285.000801 119.999644 L 285.000801 122.000381 L 286.998732 122.000381 C 286.266344 123.79908 286.765827 124.466928 288.499986 124.001118 L 290.001241 127.000821 L 291.999172 127.000821 L 291.999172 128.998752 C 293.800677 128.266364 294.465719 128.765847 293.999909 130.500006 L 299.000348 135.500446 L 305.998719 146.500291 L 309.001228 157.500136 L 310.999159 159.500873 L 315.000633 179.499825 L 315.000633 196.499075 L 312.999896 203.500252 L 312.999896 209.499657 L 310.999159 212.49936 L 310.999159 216.500834 L 307.999456 224.500976 L 296.000646 244.999411 C 294.199141 244.267024 293.534099 244.766506 293.999909 246.500666 C 290.267819 251.767683 285.601303 255.600792 280.000361 257.999993 C 280.732749 259.798692 280.233266 260.46654 278.499107 260.00073 L 260.500892 271.999541 L 247.50031 276.99998 L 243.498836 276.99998 L 243.498836 276.001015 C 253.965525 273.801046 262.967438 270.133495 270.498965 265.00117 C 279.767457 258.934419 287.933158 251.767683 294.998874 243.500963 C 302.266629 234.765627 307.600992 224.099706 310.999159 211.500394 L 313.998861 195.50011 L 313.998861 181.500562 L 310.999159 164.501312 L 304.000788 145.501325 C 297.866691 135.301214 290.366032 126.467665 281.49881 119.000679 L 272.499702 111.999502 L 251.498978 101.998623 L 245.499573 100.999657 Z M 93.999159 105.001131 C 97.798595 104.467976 100.632739 105.466941 102.498784 108.000834 L 128.000465 128.998752 C 127.265271 130.800257 127.76756 131.465299 129.498913 130.999489 L 160.001034 157.500136 L 161 173.50042 C 159.333186 174.499386 158.999262 176.834046 160.001034 180.498791 L 161 181.500562 L 161 190.49967 L 160.001034 191.498636 L 160.001034 203.500252 L 161 204.499217 L 161 212.49936 C 160.065574 216.565374 157.899278 219.399517 154.501112 220.998985 L 129.498913 238.001041 L 111.500698 252.999554 L 101.999301 257.999993 C 102.866381 260.00073 102.032974 260.665772 99.499081 260.00073 L 95.500413 261.998661 L 93.999159 260.500213 L 92.001228 249.500368 L 92.001228 247.499631 C 91.134148 244.300697 91.465266 242.29996 93.000194 241.500226 L 93.000194 239.499489 C 91.198688 236.965596 90.867571 232.966928 92.001228 227.500679 L 93.000194 224.500976 L 93.499676 219.001054 L 93.999159 255.499773 L 95.000931 260.00073 L 98.500116 260.00073 L 107.499224 254.001325 L 158.999262 214.500097 L 160.001034 209.499657 L 158.999262 208.500692 L 158.999262 173.50042 L 160.001034 172.498648 L 160.001034 164.501312 C 158.533453 163.698773 158.199529 161.700842 158.999262 158.499101 L 148.4989 147.998739 L 96.499379 106.000097 L 93.999159 109.499282 L 93.499676 214.000614 L 93.000194 109.499282 Z M 155.500077 230.000898 C 159.700783 228.533317 161.199231 229.700648 160.001034 233.500084 L 160.001034 235.500821 C 159.066608 242.765769 159.400532 248.767981 161 253.499036 L 161 255.499773 L 160.001034 329.498984 L 155.500077 334.998907 C 152.166451 339.334305 147.999418 342.334007 142.998978 344.000821 C 143.734172 345.79952 143.234689 346.467368 141.50053 345.998752 C 138.433481 350.999191 134.266448 354.332818 128.999431 355.999631 L 127.500982 358.999334 L 104.000038 377.999321 C 104.732426 379.800826 104.232943 380.465867 102.498784 380.000058 C 101.233241 382.399259 98.901386 383.732148 95.500413 383.998726 C 91.832863 382.000795 90.665533 377.499838 92.001228 370.498661 L 93.000194 369.499696 L 93.000194 280.499166 L 93.999159 276.001015 Z M 157.001331 230.999864 L 100.00137 273.001312 L 93.999159 280.998648 L 93.999159 382.000795 L 95.999896 382.99976 L 101.999301 380.000058 C 117.334544 364.667621 133.99987 350.33415 152.000892 336.999644 L 158.999262 328.999502 L 158.999262 279.000717 L 160.001034 276.001015 L 158.999262 233.000601 Z M 157.001331 230.999864 " stroke="#e8ebef" stroke-width="1" stroke-opacity="1" stroke-miterlimit="4"/><path stroke-linecap="butt" transform="matrix(1.392065, 0, 0, 1.392065, -22.313886, -22.812941)" fill-opacity="1" fill="#fefefe" fill-rule="nonzero" stroke-linejoin="miter" d="M 228.999805 46.000433 L 243.498836 46.000433 L 244.001124 48.00117 C 241.399886 46.398897 236.898929 46.067779 230.50106 46.999399 L 228.999805 47.498881 Z M 248.499275 48.00117 C 251.033168 47.532554 252.534422 48.032037 253.000232 49.499618 L 251.498978 49.999101 L 248.499275 49.000136 Z M 225.50062 49.999101 L 226.000103 51.500356 L 223.999366 52.499321 Z M 258.500155 49.999101 L 264.999042 51.000873 L 264.49956 52.998804 L 258.500155 51.000873 Z M 266.500297 52.998804 L 269.000517 54.500058 L 269.999482 57.499761 L 267.998745 56.500795 Z M 221.998629 54.999541 L 223.999366 55.499024 L 217.500478 63.998649 L 214.500775 65.00042 L 210.998784 63.499166 L 218.998926 62.000718 L 220.000698 57.999243 C 222.200667 58.734437 222.865708 57.732666 221.998629 54.999541 Z M 270.498965 62.000718 C 272.499702 62.999683 272.999185 65.499903 272.000219 69.501377 L 271.001254 69.501377 Z M 207.000116 65.00042 L 209.999818 65.499903 L 207.499599 67.001157 Z M 202.998642 67.001157 L 204.999379 67.50064 L 201.999676 71.499308 L 201.500193 81.000705 L 201.000711 71.499308 C 202.866756 70.76692 203.534604 69.265666 202.998642 67.001157 Z M 272.499702 71.998791 C 274.034629 71.532981 274.534112 72.032464 274.000956 73.500045 L 279.001396 76.499748 L 277.500142 76.999231 Z M 280.499844 76.999231 C 282.031965 76.533421 282.534254 77.032903 282.001099 78.500485 Z M 283.499547 78.999968 L 288.000504 79.998933 L 288.000504 81.99967 C 290.534396 81.000705 291.533362 81.500187 291.000206 83.500924 L 289.498952 82.998636 L 283.499547 79.998933 Z M 203.500931 81.99967 L 204.499896 84.000407 C 202.633851 84.466217 202.299927 83.801175 203.500931 81.99967 Z M 318.499818 81.99967 C 321.033711 81.53386 322.532159 82.033343 323.000775 83.500924 L 321.499521 82.998636 L 317.500853 84.000407 Z M 227.501357 84.000407 L 236.000982 85.498855 L 226.499586 86.001144 Z M 292.498654 84.000407 L 299.499831 87.999075 C 300.498797 86.332262 302.833458 86.001144 306.501008 87.00011 C 307.699205 84.867487 310.033866 83.865715 313.499379 84.000407 L 313.499379 84.999373 L 302.499534 89.000847 L 300.498797 87.999075 L 298.500866 87.999075 C 294.765969 87.46592 292.768038 86.13303 292.498654 84.000407 Z M 325.500995 84.000407 L 329.999146 87.00011 L 329.999146 89.000847 L 331.999883 89.000847 L 331.999883 90.998778 C 333.801388 90.26639 334.46643 90.765873 334.00062 92.500032 L 337.000323 94.001287 L 342.000762 103.000394 L 343.998693 103.000394 C 343.13442 105.733519 343.799461 106.732484 345.99943 106.000097 L 345.99943 109.499282 L 347.001202 112.498985 L 345.99943 112.498985 L 345.000465 107.501351 L 340.000025 100.000692 C 338.201326 100.733079 337.533478 100.233597 337.999288 98.499437 Z M 238.501202 86.001144 L 246.501344 87.00011 L 247.999792 88.501364 L 246.501344 89.000847 L 245.499573 87.999075 L 234.999211 87.499593 Z M 251.498978 89.000847 L 255.000969 90.499295 L 252.500749 90.998778 Z M 256.499417 90.998778 L 261.99934 93.498998 L 260.500892 94.001287 C 257.832307 93.667363 256.499417 92.665591 256.499417 90.998778 Z M 143.501267 92.000549 L 174.000581 92.500032 L 143.501267 92.999515 Z M 107.998706 94.001287 L 139.999275 94.500769 L 109.499961 95.000252 L 108.500995 95.999218 Z M 179.500504 94.001287 L 222.500918 94.001287 L 223.999366 95.499735 L 217.500478 95.999218 L 216.498706 95.000252 L 179.500504 95.000252 Z M 265.501331 94.001287 L 266.500297 95.999218 C 264.634252 96.467833 264.300328 95.799986 265.501331 94.001287 Z M 232.498991 95.999218 L 244.001124 97.000989 L 244.500607 98.99892 L 251.498978 98.99892 L 251.498978 100.000692 L 249.501047 100.999657 L 244.500607 100.000692 L 242.49987 97.999955 L 235.498693 97.999955 L 232.498991 97.000989 Z M 268.501034 95.999218 L 275.998887 100.500174 L 274.500439 100.999657 L 272.000219 100.000692 C 272.867299 97.999955 272.033892 97.332107 269.499999 97.999955 Z M 106.500258 97.999955 L 111.500698 105.001131 L 128.999431 119.500161 L 127.500982 119.999644 L 123.000025 116.999942 L 123.000025 114.999205 L 120.999288 114.999205 L 120.999288 113.001274 C 119.200589 113.733661 118.532742 113.234178 119.001357 111.500019 L 112.999146 107.501351 C 113.532302 106.03377 113.032819 105.534287 111.500698 106.000097 L 109.000478 105.001131 Z M 253.499715 100.999657 L 255.999935 102.500912 L 254.49868 103.000394 Z M 277.500142 100.999657 C 286.300017 105.865405 293.800677 112.033175 299.999314 119.500161 L 312.999896 136.499411 L 310.999159 136.998894 C 311.667006 135.000963 310.999159 134.333115 309.001228 135.000963 L 309.001228 132.500743 L 307.999456 130.000524 L 305.998719 130.000524 L 305.998719 127.000821 C 304.20002 127.733209 303.532172 127.233726 304.000788 125.499567 L 301.001086 124.001118 L 298.500866 119.999644 L 296.999611 119.500161 L 297.499094 117.998907 L 291.999172 114.499722 L 292.498654 113.001274 C 289.29972 108.665876 285.132687 106.000097 280.000361 105.001131 C 280.732749 102.801162 279.733784 102.133315 277.000659 103.000394 Z M 258.500155 103.000394 L 263.001111 103.99936 L 262.498823 106.000097 C 259.833044 105.666173 258.500155 104.667207 258.500155 103.000394 Z M 94.498642 103.99936 C 98.098846 102.733816 99.6001 103.233299 98.999599 105.500614 L 97.50115 105.001131 C 94.832566 105.534287 93.8336 105.200363 94.498642 103.99936 Z M 92.500711 106.000097 L 93.999159 108.500317 L 93.000194 109.499282 L 93.000194 213.501131 L 93.999159 218.498765 L 92.500711 225.000459 Z M 100.500853 106.000097 C 102.032974 105.534287 102.532457 106.03377 101.999301 107.501351 Z M 264.49956 106.000097 C 266.699529 105.267709 267.532935 105.767192 266.99978 107.501351 L 265.501331 106.999062 Z M 103.500556 108.000834 L 106.000775 108.999799 L 106.000775 111.000537 L 109.000478 111.000537 L 109.000478 113.001274 L 111.001215 113.001274 C 110.266021 114.799973 110.765504 115.46782 112.499663 114.999205 L 113.498629 116.999942 C 108.767573 114.533395 105.433947 111.533692 103.500556 108.000834 Z M 268.501034 108.000834 L 274.999922 111.500019 L 273.498667 111.999502 L 268.501034 108.999799 Z M 276.501176 113.001274 L 277.500142 114.999205 Z M 345.499948 114.000239 L 345.99943 117.998907 L 343.998693 117.998907 L 343.998693 122.000381 L 342.500245 122.000381 L 339.00106 127.500304 L 339.00106 130.000524 L 337.000323 129.501041 Z M 279.500879 114.999205 L 282.001099 116.000976 L 282.001099 117.998907 C 283.799798 117.26652 284.467645 117.766002 283.999029 119.500161 Z M 115.499366 117.998907 L 123.000025 122.999347 L 123.000025 125.000084 C 124.798725 124.267696 125.466572 124.767179 125.000763 126.501338 L 128.000465 128.499269 L 126.499211 128.998752 Z M 130.500685 119.999644 L 158.000297 143.500588 L 155.99956 144.000071 C 156.731947 142.201372 156.232465 141.533524 154.501112 141.999334 L 150.000155 138.999631 L 146.500969 133.999192 L 142.000012 132.001261 C 142.7324 130.199755 142.232917 129.534714 140.498758 130.000524 L 138.001344 128.998752 C 138.733732 127.200053 138.234249 126.532205 136.50009 127.000821 L 133.000905 125.000084 C 133.733292 123.201385 133.23381 122.533537 131.49965 122.999347 Z M 292.498654 127.000821 L 293.500426 128.998752 C 291.634381 129.467368 291.300457 128.79952 292.498654 127.000821 Z M 128.499948 130.000524 L 131.000168 130.000524 C 130.26778 131.799223 130.767263 132.46707 132.498616 132.001261 L 136.999573 135.000963 L 136.999573 136.998894 C 138.801078 136.266507 139.46612 136.765989 139.00031 138.500149 L 133.500387 133.999192 L 128.499948 130.999489 Z M 294.499392 130.000524 L 296.000646 130.000524 L 296.000646 132.001261 C 297.799345 131.266067 298.467193 131.76555 298.001383 133.499709 L 301.001086 137.501183 L 299.000348 136.499411 Z M 337.499805 133.999192 L 339.500542 138.999631 L 340.998991 138.500149 L 340.000025 140.500886 L 342.000762 144.499554 L 340.000025 143.500588 Z M 313.499379 138.000666 L 315.000633 140.500886 L 312.999896 141.000368 Z M 140.498758 138.999631 L 144.999715 142.498817 L 143.501267 143.001105 Z M 301.500568 138.999631 L 302.999017 138.999631 L 302.999017 141.999334 C 304.800522 141.266946 305.465563 141.766429 304.999754 143.500588 L 305.998719 145.501325 L 304.000788 144.499554 Z M 315.500116 141.999334 L 318.000336 146.500291 L 315.999598 146.999774 Z M 146.500969 144.000071 L 152.000892 146.999774 L 152.000892 149.000511 L 153.998823 149.000511 C 153.266435 150.79921 153.765918 151.467057 155.500077 151.001248 L 157.001331 154.00095 L 161 155.998881 L 161 162.500575 L 160.001034 162.500575 L 160.001034 157.500136 L 151.498603 149.000511 Z M 159.498745 144.999036 L 168.001176 150.498959 L 163.999702 151.001248 L 163.999702 149.000511 C 162.201003 149.732898 161.533155 149.233415 161.998965 147.499256 Z M 305.998719 146.999774 C 308.198688 146.132694 308.866536 147.300024 307.999456 150.498959 L 307.000491 150.498959 Z M 342.500245 146.999774 C 344.032366 147.532929 344.534655 149.034184 343.998693 151.50073 L 342.999728 151.50073 Z M 318.499818 147.998739 L 320.001073 150.498959 L 318.000336 149.499993 Z M 221.499146 151.001248 L 228.00084 153.498661 L 226.499586 154.00095 L 225.50062 152.999179 L 168.001176 152.499696 L 220.50018 152.000213 Z M 309.500711 152.000213 L 310.999159 158.499101 L 309.001228 157.500136 L 307.999456 153.498661 Z M 345.499948 152.000213 L 347.001202 157.500136 L 345.000465 156.50117 L 343.998693 153.498661 Z M 320.500555 154.00095 L 321.999004 155.499398 L 324.998706 167.501015 L 323.500258 170.001235 L 322.501292 160.999321 L 321.499521 163.000058 L 321.000038 160.499838 L 321.000038 158.499101 Z M 234.499728 157.000653 L 242.999353 163.499541 L 245.999055 167.501015 L 244.001124 168.000498 L 240.499133 163.000058 C 239.034358 163.533214 238.532069 163.033731 239.000685 161.498804 Z M 347.500685 159.00139 L 350.000904 160.499838 L 348.49965 160.999321 Z M 351.499353 160.999321 C 354.033246 160.334279 354.866652 160.999321 353.999573 163.000058 Z M 311.498642 163.000058 C 313.232801 162.466902 313.732283 163.300309 312.999896 165.500278 L 312.00093 165.500278 Z M 356.499792 163.000058 L 361.500232 165.000795 L 362.99868 164.501312 L 360.501266 165.999761 C 357.832682 165.665837 356.499792 164.666871 356.499792 163.000058 Z M 161.499482 165.000795 L 161.998965 170.500717 L 161 170.500717 Z M 363.500969 165.999761 C 365.700938 165.267373 366.534345 165.766856 366.001189 167.501015 L 364.499935 166.998726 Z M 367.499637 168.000498 L 367.99912 170.001235 C 370.667705 169.066809 371.332746 170.899181 369.999857 175.501157 L 370.998822 176.500123 L 370.998822 188.498933 L 369.999857 188.498933 L 369.999857 177.499088 Z M 314.50115 170.001235 L 315.000633 178.50086 L 313.998861 178.50086 C 314.801401 175.366465 314.467477 173.365728 312.999896 172.498648 Z M 162.501254 173.000937 L 163.000737 177.499088 L 161.998965 177.499088 Z M 160.500517 173.999903 L 161.998965 180.498791 L 161.998965 188.498933 L 163.000737 189.500705 L 162.501254 192.000924 L 161 192.500407 L 161 203.500252 L 160.001034 203.500252 L 161 181.500562 C 159.133954 180.299559 158.965589 177.799339 160.500517 173.999903 Z M 248.499275 173.999903 L 250.00053 175.501157 L 250.999495 181.500562 L 250.00053 182.499528 L 250.00053 191.498636 L 250.999495 194.501144 L 248.499275 201.000032 L 247.999792 199.498778 L 250.00053 193.499373 L 248.998758 192.500407 L 248.998758 176.500123 Z M 325.500995 173.999903 L 326.999443 180.498791 L 326.999443 195.50011 L 325.500995 201.998998 L 324.998706 194.501144 L 326.000478 193.499373 L 326.000478 182.499528 L 324.998706 181.500562 Z M 316.499081 179.000342 L 317.00137 196.499075 L 315.999598 196.499075 Z M 162.501254 195.000627 L 163.000737 197.500847 L 161.998965 197.500847 Z M 370.49934 195.999592 L 370.998822 201.499515 L 369.999857 206.000472 L 367.99912 206.000472 C 368.734314 207.799171 368.232025 208.467019 366.500672 208.001209 L 364.999417 208.500692 L 369.000891 204.499217 Z M 314.50115 197.001364 L 315.000633 204.9987 C 313.199128 205.733894 312.534086 205.234411 312.999896 203.500252 Z M 314.50115 197.001364 " stroke="#fefefe" stroke-width="1" stroke-opacity="1" stroke-miterlimit="4"/><path stroke-linecap="butt" transform="matrix(1.392065, 0, 0, 1.392065, -22.313886, -22.812941)" fill-opacity="1" fill="#fefefe" fill-rule="nonzero" stroke-linejoin="miter" d="M 245.999055 201.998998 C 247.800561 201.26661 248.465602 201.766093 247.999792 203.500252 L 245.999055 204.499217 Z M 323.500258 204.9987 L 324.998706 208.500692 L 323.500258 214.000614 Z M 161.499482 206.000472 C 163.03441 206.533627 163.533892 208.032076 163.000737 210.498623 C 161.134691 211.834318 160.466844 214.000614 161 217.000317 L 158.999262 217.000317 L 158.999262 219.001054 L 157.001331 219.001054 C 157.733719 220.799753 157.234236 221.4676 155.500077 220.998985 L 160.001034 215.499062 Z M 244.001124 206.000472 L 245.999055 206.499954 L 243.498836 209.99914 L 244.001124 208.500692 Z M 362.499197 209.000174 L 361.500232 211.000911 L 356.999275 211.500394 L 359.000012 212.49936 L 357.498758 212.998842 L 355.500827 212.998842 L 348.999133 214.000614 L 348.999133 216.001351 C 347.200434 215.266157 346.532586 215.76564 347.001202 217.499799 L 345.99943 223.998687 C 344.200731 224.733881 343.532883 224.234398 343.998693 222.500239 C 344.599195 218.100301 346.434373 214.932233 349.498616 212.998842 Z M 312.500413 209.99914 L 312.999896 212.998842 L 310.999159 212.49936 Z M 241.500905 211.000911 L 235.498693 217.999282 L 228.999805 220.998985 L 228.999805 219.001054 L 231.999508 219.001054 C 231.199774 217.000317 232.033181 216.332469 234.499728 217.000317 L 236.999948 216.001351 L 236.999948 214.000614 L 239.000685 214.000614 C 238.265491 212.199109 238.76778 211.534067 240.499133 211.999877 Z M 321.499521 212.998842 L 323.000775 216.500834 L 320.500555 222.000756 L 321.000038 220.499502 L 321.999004 216.500834 Z M 310.499676 217.000317 L 310.999159 218.498765 L 309.500711 223.998687 L 309.001228 219.500536 Z M 153.49934 220.998985 L 153.998823 222.999722 L 148.4989 225.999424 L 149.500672 223.998687 Z M 226.499586 220.998985 L 228.00084 221.501273 L 221.499146 223.998687 L 217.000995 222.500239 L 225.50062 222.000756 Z M 173.501099 223.998687 L 217.000995 224.500976 L 172.99881 225.000459 L 171.500362 228.999127 L 171.000879 226.498907 Z M 318.000336 223.998687 C 319.799035 223.2663 320.466882 223.765782 320.001073 225.499942 L 318.499818 228.000161 Z M 307.499973 225.000459 L 307.999456 228.000161 L 305.998719 227.500679 Z M 307.499973 225.000459 " stroke="#fefefe" stroke-width="1" stroke-opacity="1" stroke-miterlimit="4"/><path stroke-linecap="butt" transform="matrix(1.392065, 0, 0, 1.392065, -22.313886, -22.812941)" fill-opacity="1" fill="#fefefe" fill-rule="nonzero" stroke-linejoin="miter" d="M 343.49921 225.000459 L 343.998693 228.999127 C 342.199994 229.734321 341.532146 229.232032 342.000762 227.500679 Z M 146.500969 225.999424 L 147.000452 228.000161 L 141.50053 230.999864 L 143.501267 228.000161 Z M 90.499974 228.000161 L 90.999457 237.498752 L 90.000491 237.498752 Z M 153.49934 228.999127 C 157.500814 228.000161 160.001034 228.499644 161 230.500381 L 160.500517 233.999566 L 160.001034 230.000898 L 155.500077 230.000898 L 145.499198 238.001041 L 144.999715 236.000304 L 150.99912 233.000601 C 150.199387 230.999864 151.032793 230.332016 153.49934 230.999864 Z M 315.999598 228.999127 L 318.000336 229.49861 L 315.500116 233.999566 L 315.999598 232.501118 Z M 305.499236 230.000898 L 304.999754 231.499347 C 305.732141 233.699316 305.232658 234.532722 303.501305 233.999566 L 304.000788 232.501118 Z M 139.499793 230.999864 L 139.999275 233.000601 L 138.001344 232.501118 Z M 341.501279 230.999864 L 342.000762 232.501118 L 340.499508 235.001338 L 340.000025 232.501118 Z M 136.50009 233.000601 L 136.999573 235.001338 L 134.998836 235.001338 C 135.734029 236.800037 135.234547 237.467885 133.500387 236.999269 L 131.49965 238.001041 L 131.49965 236.999269 Z M 160.500517 235.001338 L 161 249.500368 L 160.001034 249.500368 Z M 302.499534 235.001338 L 302.999017 236.999269 L 301.001086 236.499786 Z M 312.999896 236.000304 L 315.000633 236.499786 L 304.500271 252.000588 L 304.000788 249.500368 L 309.001228 244.499929 L 309.001228 241.999709 C 310.999159 242.866788 311.667006 242.033382 310.999159 239.499489 Z M 129.498913 238.001041 L 130.001202 239.998972 L 128.000465 239.998972 C 128.732853 241.800477 128.23337 242.465518 126.499211 241.999709 L 122.500543 244.999411 L 123.499508 242.998674 Z M 142.000012 238.001041 L 144.00075 238.500523 L 142.000012 239.499489 Z M 300.498797 238.001041 L 301.001086 239.998972 L 299.000348 239.499489 Z M 338.498771 238.001041 L 339.00106 246.500666 L 342.000762 252.000588 L 343.998693 252.000588 C 343.13442 254.733713 343.799461 255.732678 345.99943 255.000291 L 345.99943 258.499476 L 346.498913 260.00073 L 337.999288 247.499631 L 337.000323 241.500226 Z M 140.498758 239.998972 L 136.50009 244.999411 L 136.000607 242.998674 L 138.001344 242.998674 C 137.266151 241.199975 137.765633 240.532127 139.499793 241.000743 Z M 298.500866 241.000743 L 298.001383 242.499191 L 293.000943 249.999851 L 291.000206 249.999851 C 291.732594 251.801356 291.233111 252.466398 289.498952 252.000588 L 285.999767 257.001028 L 283.000064 256.498739 L 293.999909 246.500666 L 296.000646 243.500963 Z M 133.000905 244.999411 L 134.998836 245.498894 L 133.000905 246.500666 Z M 119.50084 246.001183 L 120.999288 246.500666 L 119.001357 247.000148 C 119.733745 248.798847 119.234262 249.466695 117.500103 249.000885 L 114.999883 249.999851 C 115.732271 251.801356 115.232788 252.466398 113.498629 252.000588 L 109.499961 255.000291 L 110.498926 252.999554 Z M 131.49965 247.000148 L 129.498913 249.999851 L 113.498629 260.999696 L 114.5004 258.998959 L 119.001357 256.498739 C 118.532742 255.033964 119.032224 254.534481 120.499806 255.000291 L 125.999728 251.501105 C 125.533918 250.033524 126.033401 249.534041 127.500982 249.999851 Z M 92.500711 250.998816 L 93.999159 257.50051 L 92.001228 257.999993 Z M 301.001086 252.999554 L 302.999017 253.499036 L 286.998732 268.500355 L 286.998732 266.999101 L 288.999469 266.999101 C 288.267082 265.200402 288.766564 264.532554 290.500723 265.00117 L 291.999172 261.998661 L 293.999909 261.998661 C 293.267521 260.199962 293.767004 259.532114 295.501163 260.00073 L 296.999611 257.001028 L 301.001086 254.500808 Z M 107.499224 255.000291 L 107.998706 257.001028 L 102.498784 258.998959 L 102.498784 257.999993 Z M 280.000361 257.999993 L 282.001099 258.499476 L 280.000361 259.501248 Z M 161.499482 258.998959 L 161.998965 274.49976 L 161 274.49976 Z M 99.499081 260.00073 L 101.999301 260.500213 L 98.500116 261.998661 Z M 278.499107 260.00073 L 279.001396 261.998661 L 277.000659 261.998661 L 277.000659 263.999398 L 274.000956 263.999398 C 274.733344 265.800904 274.233861 266.465945 272.499702 266.000135 L 270.498965 266.999101 L 271.500736 265.00117 Z M 109.499961 263.999398 L 108.500995 266.000135 L 104.499521 268.999838 L 104.000038 266.999101 C 106.000775 267.666949 106.665817 266.999101 106.000775 265.00117 L 108.500995 265.00117 Z M 346.498913 266.000135 L 347.001202 267.50139 L 345.99943 271.000575 L 343.998693 271.000575 L 343.998693 274.000278 C 342.199994 273.26789 341.532146 273.767373 342.000762 275.498726 L 339.00106 276.99998 L 338.498771 279.000717 L 337.999288 277.499463 Z M 268.501034 266.999101 L 269.000517 268.999838 L 266.99978 268.500355 Z M 101.499819 268.999838 L 95.500413 276.001015 L 95.000931 274.000278 L 96.998862 274.000278 C 96.266474 272.198772 96.765957 271.533731 98.500116 271.999541 Z M 265.501331 268.999838 L 264.49956 271.000575 C 262.033013 270.332727 261.199606 271.000575 261.99934 273.001312 L 258.500155 273.001312 L 256.499417 274.000278 L 256.499417 273.001312 Z M 284.501318 268.999838 L 285.999767 269.499321 L 279.500879 274.000278 L 279.001396 271.999541 L 282.001099 271.999541 C 281.265905 270.200841 281.765388 269.532994 283.499547 269.998803 Z M 253.499715 274.000278 L 255.000969 274.49976 C 254.532353 276.034688 253.033905 276.53417 250.500012 276.001015 L 250.500012 274.999243 Z M 171.500362 274.999243 L 174.500064 279.999683 L 176.001318 280.499166 L 172.99881 280.998648 Z M 248.499275 276.001015 L 249.501047 277.998946 L 240.499133 279.000717 L 240.499133 277.998946 Z M 274.500439 276.001015 L 273.498667 277.998946 L 267.499262 280.998648 L 266.99978 279.000717 C 269.732904 279.867797 270.734676 279.199949 269.999482 276.99998 L 273.498667 276.99998 Z M 160.500517 277.998946 L 161 330.500756 L 160.001034 330.500756 Z M 92.001228 279.000717 L 93.999159 279.5002 L 93.000194 280.499166 L 92.500711 369.999178 Z M 231.500025 279.000717 C 234.033918 278.33287 234.867325 279.000717 234.000245 280.998648 L 226.999068 280.499166 Z M 336.50084 279.999683 L 337.000323 281.500937 L 331.999883 287.999825 L 329.999146 287.999825 C 330.73434 289.80133 330.232051 290.466372 328.500698 290.000562 L 326.999443 290.500045 Z M 263.500594 280.998648 L 264.999042 281.500937 L 260.500892 284.001157 L 259.998603 282.00042 Z M 183.499172 282.00042 L 210.998784 282.499903 L 183.499172 282.999385 Z M 254.49868 284.001157 L 258.999637 284.50064 L 255.500452 285.999088 Z M 250.00053 285.999088 L 252.001267 286.501377 L 250.00053 287.500342 Z M 300.498797 285.999088 L 307.499973 287.00086 L 313.998861 290.500045 L 312.500413 290.999528 L 305.998719 289.501079 L 307.999456 288.499308 L 298.001383 287.999825 C 298.733771 289.80133 298.234288 290.466372 296.500129 290.000562 L 294.499392 290.999528 L 295.501163 288.998791 C 297.232516 289.467406 297.731999 288.799559 296.999611 287.00086 L 299.499831 287.00086 Z M 242.49987 287.00086 L 245.999055 288.499308 L 234.499728 290.999528 L 229.998771 289.501079 L 242.999353 288.499308 Z M 204.499896 290.999528 L 206.00115 291.49901 L 201.999676 294.498713 C 200.734133 301.09862 201.733098 305.434018 204.999379 307.499295 L 202.998642 307.998778 L 201.000711 304.499592 L 201.000711 293.000265 Z M 214.500775 290.999528 L 226.000103 291.49901 L 214.500775 292.001299 Z M 292.498654 290.999528 L 293.000943 293.000265 L 286.499249 295.999967 L 287.501021 293.99923 Z M 316.499081 290.999528 L 323.500258 292.001299 L 324.998706 291.49901 L 324.499223 293.000265 L 317.500853 293.000265 Z M 283.499547 295.999967 L 283.999029 298.000704 L 282.001099 297.501222 Z M 279.500879 298.000704 L 280.999327 298.500187 L 277.000659 299.998635 C 277.733046 301.800141 277.233564 302.467988 275.499405 301.999372 L 274.000956 304.999075 C 272.199451 305.734269 271.534409 305.23198 272.000219 303.500627 Z M 271.500736 306.999812 L 272.000219 314.999954 C 270.198714 315.732342 269.533672 315.232859 269.999482 313.4987 Z M 207.499599 307.998778 L 209.999818 309.500032 L 207.000116 309.999515 Z M 215.499741 309.999515 L 218.998926 311.500769 L 216.498706 312.000252 Z M 219.501215 312.999217 L 221.998629 317.500174 L 220.000698 317.999657 Z M 222.500918 318.998622 L 223.999366 322.001131 C 221.667511 322.733519 221.168028 321.734553 222.500918 318.998622 Z M 269.499999 320.000394 L 269.999482 321.498842 L 269.000517 323.999062 L 260.500892 326.998765 L 260.500892 325.999799 L 265.501331 325.000834 L 269.000517 321.498842 Z M 224.498849 323.000097 L 230.50106 330.001273 L 241.500905 330.001273 L 243.498836 328.999502 L 245.999055 330.500756 L 228.999805 331.000239 L 228.999805 328.999502 C 227.201106 329.734695 226.533259 329.232407 226.999068 327.501053 C 224.198598 326.70132 223.367997 325.200066 224.498849 323.000097 Z M 253.499715 326.998765 C 255.233874 326.532955 255.733357 327.200803 255.000969 328.999502 L 248.998758 328.500019 Z M 158.49978 331.000239 L 158.999262 332.498687 L 153.998823 336.000678 C 154.734016 337.799378 154.234534 338.467225 152.500375 337.998609 L 150.99912 341.001118 L 143.501267 345.998752 L 142.998978 344.000821 L 147.499935 342.000084 L 157.001331 333.500459 Z M 141.50053 345.998752 L 142.000012 347.999489 L 136.999573 351.498674 C 137.532729 353.033601 137.033246 353.533084 135.501125 352.999928 L 131.49965 355.999631 L 132.498616 353.998894 Z M 126.499211 358.999334 L 128.000465 359.498816 L 125.000763 361.499553 C 125.533918 363.034481 125.034436 363.533963 123.499508 363.000808 L 120.000323 364.998739 C 120.73271 366.800244 120.233228 367.465286 118.499069 366.999476 L 117.00062 367.498959 Z M 113.498629 369.999178 L 114.000918 371.999915 L 111.001215 373.50117 L 111.001215 374.999618 L 109.000478 374.999618 C 109.732866 376.801123 109.233383 377.466165 107.499224 377.000355 L 101.000336 382.000795 C 101.867415 383.998726 101.034009 384.666573 98.500116 383.998726 L 95.500413 385.000497 L 92.001228 382.500278 L 92.500711 380.000058 L 95.500413 383.998726 L 104.000038 380.000058 C 103.267651 378.201359 103.767134 377.533511 105.501293 377.999321 Z M 113.498629 369.999178 " stroke="#fefefe" stroke-width="1" stroke-opacity="1" stroke-miterlimit="4"/><path stroke-linecap="butt" transform="matrix(1.392065, 0, 0, 1.392065, -22.313886, -22.812941)" fill-opacity="1" fill="#1c3d7e" fill-rule="nonzero" stroke-linejoin="miter" d="M 232.498991 49.000136 L 256.499417 52.998804 C 260.899355 53.599306 264.067423 55.434484 266.000814 58.498726 L 267.998745 72.50108 L 272.499702 78.001002 L 281.49881 81.99967 L 301.001086 94.500769 L 297.499094 95.000252 L 290.500723 92.999515 L 289.498952 95.000252 C 291.233111 94.534442 291.732594 95.199484 291.000206 97.000989 C 288.999469 96.201256 288.334428 97.034662 288.999469 99.501209 L 296.000646 108.500317 L 294.499392 108.000834 L 274.500439 95.000252 L 246.501344 84.000407 L 241.500905 84.000407 L 228.500323 81.000705 L 205.498862 81.000705 L 204.000413 79.49945 C 203.133334 73.965855 204.300664 70.46667 207.499599 68.999088 L 220.000698 67.001157 L 230.50106 49.999101 Z M 223.999366 65.00042 L 221.998629 68.000123 L 207.000116 70.00086 C 204.999379 71.333749 204.334337 74.333452 204.999379 78.999968 C 206.332268 81.000705 209.331971 81.334629 214.001293 79.998933 L 220.000698 71.998791 L 223.0004 70.00086 L 223.999366 67.001157 Z M 113.498629 97.000989 L 190.500349 97.000989 L 191.499314 97.999955 L 224.498849 97.999955 L 225.50062 98.99892 L 238.501202 100.000692 C 262.765401 105.399595 281.265905 116.567805 293.999909 133.499709 L 302.999017 146.500291 L 310.000193 165.500278 L 310.000193 170.500717 L 312.00093 176.500123 L 312.00093 199.498778 L 310.000193 210.498623 L 303.501305 227.001196 L 302.999017 225.499942 C 309.865501 213.700363 312.534086 197.700079 310.999159 177.499088 L 302.999017 148.501028 C 297.600113 138.567495 290.767301 130.06787 282.500581 122.999347 C 271.166813 112.333426 256.499417 105.001131 238.501202 100.999657 L 225.50062 100.000692 L 224.498849 98.99892 L 134.499353 97.999955 L 132.498616 97.999955 C 129.967529 99.798654 125.966055 100.132578 120.499806 98.99892 L 116.501138 97.999955 L 112.000181 99.501209 L 112.999146 101.998623 L 162.501254 143.001105 L 171.000879 147.499256 L 168.500659 147.998739 L 111.001215 100.500174 C 110.266021 98.300205 110.765504 97.466799 112.499663 97.999955 Z M 95.999896 108.000834 L 99.499081 108.999799 L 145.499198 146.999774 L 158.000297 159.500873 L 158.000297 177.499088 L 155.99956 181.00108 L 95.000931 223.998687 L 95.000931 110.501054 Z M 98.000633 109.998765 L 95.999896 111.999502 L 95.999896 219.001054 L 96.998862 220.998985 L 155.99956 179.000342 L 157.001331 176.999605 L 157.001331 160.000355 L 111.001215 119.000679 Z M 98.000633 109.998765 " stroke="#1c3d7e" stroke-width="1" stroke-opacity="1" stroke-miterlimit="4"/><path stroke-linecap="butt" transform="matrix(1.392065, 0, 0, 1.392065, -22.313886, -22.812941)" fill-opacity="1" fill="#1c3d7e" fill-rule="nonzero" stroke-linejoin="miter" d="M 196.499754 146.999774 L 218.499443 146.999774 L 227.501357 149.000511 L 245.00009 160.000355 L 250.999495 169.498946 L 253.000232 176.500123 L 252.001267 176.500123 C 250.398993 168.098711 246.565884 161.933746 240.499133 157.999618 L 227.501357 149.999476 L 218.499443 147.998739 L 196.499754 147.998739 Z M 175.49903 147.998739 L 183.998655 148.501028 L 175.49903 149.000511 Z M 253.499715 178.001377 C 255.36576 181.534235 255.868049 186.36631 255.000969 192.500407 C 253.26681 202.43394 249.433701 210.265718 243.498836 216.001351 C 237.367545 221.866064 229.367402 225.867538 219.501215 228.000161 L 176.500801 228.000161 L 174.999547 229.49861 L 174.999547 275.498726 L 176.500801 276.99998 L 225.50062 276.99998 L 247.50031 273.001312 L 247.50031 274.000278 L 226.499586 277.998946 L 174.999547 277.998946 L 174.000581 275.498726 L 174.000581 228.499644 L 175.49903 227.001196 L 219.501215 227.001196 L 224.498849 225.999424 C 233.500762 222.999722 240.667498 218.167647 245.999055 211.500394 L 253.000232 197.500847 L 253.999198 182.499528 Z M 155.500077 198.000329 C 157.500814 197.666406 158.000297 199.832702 157.001331 204.499217 C 158.533453 205.298951 158.867377 207.299688 158.000297 210.498623 L 155.99956 216.001351 L 103.500556 255.000291 L 97.50115 257.999993 L 95.999896 256.498739 C 97.2009 252.365379 96.866976 249.6996 95.000931 248.501403 L 95.000931 246.500666 C 94.532315 242.367306 95.699645 239.867086 98.500116 239.000006 L 114.5004 228.999127 Z M 302.499534 228.000161 L 302.000051 229.49861 L 296.000646 240.50126 L 280.499844 255.999256 C 272.165778 263.665474 261.833781 269.333762 249.501047 273.001312 L 249.501047 271.999541 C 267.833186 265.332288 282.66614 255.16585 293.999909 241.500226 Z M 155.500077 233.000601 L 158.000297 234.499049 L 158.000297 327.501053 L 148.4989 337.998609 L 99.499081 380.000058 L 95.000931 380.999023 L 95.000931 280.499166 L 101.499819 273.001312 Z M 155.000594 235.001338 L 101.000336 274.999243 L 95.999896 280.998648 L 95.999896 380.000058 L 100.00137 379.001092 L 109.999444 369.000213 L 150.99912 334.998907 C 154.332747 333.666017 156.333484 331.000239 157.001331 326.998765 L 157.001331 236.000304 Z M 311.498642 249.000885 L 312.00093 250.499334 L 304.500271 258.998959 L 307.999456 254.500808 L 309.001228 250.998816 C 310.867273 251.666664 311.700679 250.998816 311.498642 249.000885 Z M 299.499831 263.000433 L 299.999314 264.498881 C 295.06622 266.300386 293.065483 270.467419 293.999909 276.99998 C 296.199878 276.267593 296.867725 277.266558 296.000646 279.999683 L 302.499534 279.999683 L 307.000491 282.499903 L 305.499236 282.00042 C 301.301336 281.467264 298.298828 282.132306 296.500129 284.001157 C 290.433377 290.26714 282.767159 294.933656 273.498667 298.000704 L 269.000517 302.498855 L 266.99978 318.49914 L 264.49956 322.001131 L 249.501047 325.999799 L 232.498991 328.000536 L 228.999805 325.500316 L 225.001137 316.501209 L 218.499443 307.998778 L 208.50137 306.999812 L 204.999379 304.499592 L 204.000413 296.49945 L 206.500633 293.99923 L 218.499443 293.99923 L 240.499133 293.000265 L 263.500594 285.999088 C 277.500142 280.333607 289.498952 272.667388 299.499831 263.000433 Z M 207.999081 295.001002 L 204.999379 298.000704 L 206.00115 304.00011 L 209.999818 306.000847 L 220.999663 306.999812 L 221.998629 309.000549 C 221.333587 310.333439 221.998629 310.667362 223.999366 309.999515 C 223.334324 307.998778 223.999366 306.665888 226.000103 306.000847 C 225.332255 304.00011 226.000103 303.332262 228.00084 304.00011 L 226.999068 301.000407 L 223.0004 295.999967 Z M 207.999081 295.001002 " stroke="#1c3d7e" stroke-width="1" stroke-opacity="1" stroke-miterlimit="4"/><g clip-path="url(#c40e76827f)"><path stroke-linecap="butt" transform="matrix(1.392065, 0, 0, 1.392065, -22.313886, -22.812941)" fill-opacity="1" fill="#ffffff" fill-rule="nonzero" stroke-linejoin="miter" d="M 0.000995456 0.000316841 L 419.998641 0.000316841 L 419.998641 420.000769 L 0.000995456 420.000769 Z M 228.999805 46.000433 L 226.999068 49.999101 L 223.999366 51.999838 L 223.999366 54.999541 C 221.998629 54.334499 221.333587 55.333465 221.998629 57.999243 L 220.000698 57.999243 L 218.998926 62.000718 L 210.998784 63.998649 L 214.001293 63.998649 L 214.001293 65.00042 L 207.999081 65.00042 C 207.999081 67.001157 206.332268 67.666199 202.998642 67.001157 C 203.666489 68.999088 202.998642 70.665901 201.000711 71.998791 L 201.000711 81.000705 L 204.000413 84.000407 L 226.999068 84.000407 L 226.000103 86.001144 L 237.998913 87.00011 L 234.999211 87.999075 L 250.999495 89.000847 L 261.000374 94.001287 C 264.334001 92.665591 265.66689 93.333439 264.999042 95.999218 C 266.99978 95.334176 268.666593 95.999218 269.999482 97.999955 C 272.000219 97.332107 272.665261 97.999955 272.000219 100.000692 L 274.999922 100.999657 C 277.000659 100.334616 277.6657 100.999657 277.000659 103.000394 L 280.000361 103.000394 L 280.000361 105.001131 C 285.334725 106.334021 289.667317 108.999799 293.000943 113.001274 L 291.999172 114.999205 L 298.001383 117.998907 L 296.999611 119.999644 L 299.000348 119.999644 L 301.001086 124.001118 L 304.000788 125.999049 C 303.33294 127.331939 304.000788 127.665863 305.998719 127.000821 L 305.998719 130.000524 L 307.999456 130.000524 L 309.001228 133.000226 L 309.001228 135.000963 L 312.999896 136.998894 L 312.999896 141.000368 L 315.000633 141.000368 L 315.999598 144.999036 C 315.334557 146.999774 315.999598 147.667621 318.000336 146.999774 C 317.332488 149.000511 318.000336 150.667324 320.001073 152.000213 L 321.000038 159.00139 L 321.000038 160.999321 L 321.999004 163.000058 L 323.000775 160.999321 L 323.999741 170.001235 L 324.998706 168.000498 L 324.998706 182.000045 L 326.000478 182.999011 L 324.998706 208.001209 L 323.999741 204.9987 L 323.000775 214.999579 L 321.999004 214.000614 L 321.000038 214.000614 L 321.999004 217.000317 L 320.001073 222.000756 L 320.001073 223.998687 L 318.000336 225.000459 L 318.000336 228.999127 L 315.999598 228.999127 L 315.000633 233.999566 C 315.665675 236.000304 315.000633 236.665345 312.999896 236.000304 L 310.999159 239.998972 C 311.667006 241.999709 310.999159 242.667556 309.001228 241.999709 L 309.001228 244.999411 L 302.999017 252.999554 C 301.001086 252.334512 300.333238 252.999554 301.001086 255.000291 L 296.999611 257.001028 L 296.000646 260.00073 C 293.999909 259.332883 293.332061 260.00073 293.999909 261.998661 L 291.999172 261.998661 L 291.000206 265.00117 C 288.999469 264.333322 288.334428 265.00117 288.999469 266.999101 L 286.998732 266.999101 L 286.998732 268.999838 L 283.999029 269.998803 C 282.001099 269.333762 281.333251 269.998803 282.001099 271.999541 L 279.001396 271.999541 L 277.000659 276.001015 L 274.000956 276.99998 L 269.999482 276.99998 C 270.66733 279.000717 269.665558 279.665759 266.99978 279.000717 L 266.99978 280.998648 L 263.001111 282.00042 L 259.998603 282.00042 L 259.998603 284.001157 L 255.000969 284.001157 L 255.000969 285.999088 C 250.999495 284.666199 249.332682 285.334046 250.00053 287.999825 L 242.999353 287.00086 L 242.999353 288.998791 L 229.998771 290.000562 L 234.000245 290.999528 L 204.999379 290.999528 L 201.000711 293.000265 L 201.000711 304.999075 L 202.998642 306.999812 L 202.998642 307.998778 L 207.000116 307.998778 L 207.000116 309.999515 L 215.000258 309.999515 C 215.6653 312.000252 217.000995 312.665293 218.998926 312.000252 L 220.000698 315.99892 C 219.33285 317.999657 220.000698 318.667505 221.998629 317.999657 L 221.998629 322.001131 L 223.999366 322.001131 C 223.334324 324.66691 224.33329 326.667647 226.999068 328.000536 C 226.334027 329.333426 226.999068 329.667349 228.999805 328.999502 L 228.999805 331.000239 L 245.999055 331.000239 L 245.00009 330.001273 L 245.00009 328.999502 L 255.000969 328.999502 L 255.000969 326.998765 C 261.665416 327.666612 266.334738 326.667647 269.000517 323.999062 L 269.999482 322.001131 C 269.33444 316.666768 269.999482 314.332107 272.000219 314.999954 L 272.000219 306.000847 L 274.000956 304.999075 L 275.998887 301.999372 C 277.334583 302.66722 277.6657 301.999372 277.000659 299.998635 C 279.001396 300.666483 280.665403 299.998635 282.001099 298.000704 C 283.999029 298.665746 284.666877 298.000704 283.999029 295.999967 C 287.332656 295.999967 290.001241 295.001002 291.999172 293.000265 C 293.332061 293.665306 293.665985 293.000265 293.000943 290.999528 L 296.999611 290.000562 C 298.332501 290.665604 298.666425 290.000562 298.001383 287.999825 L 307.999456 288.998791 L 305.998719 290.000562 L 315.999598 290.999528 L 318.000336 293.000265 L 324.998706 293.000265 L 324.998706 290.999528 L 329.00018 290.000562 C 330.33307 290.665604 330.666994 290.000562 329.999146 287.999825 L 331.999883 287.999825 L 337.000323 282.00042 L 337.000323 279.000717 C 339.00106 279.665759 339.666101 279.000717 339.00106 276.99998 L 342.000762 276.001015 C 341.332914 274.000278 342.000762 273.33243 343.998693 274.000278 L 343.998693 271.000575 L 345.99943 271.000575 L 347.001202 268.000873 L 347.001202 260.00073 L 345.99943 258.998959 L 345.99943 255.000291 C 343.998693 255.665332 343.333652 254.666367 343.998693 252.000588 L 342.000762 252.000588 L 339.00106 247.000148 L 339.00106 238.001041 L 340.998991 236.999269 L 340.000025 236.000304 L 342.000762 233.000601 C 341.332914 229.666975 342.000762 228.334085 343.998693 228.999127 L 343.998693 223.998687 L 345.99943 223.998687 L 347.001202 217.999282 C 346.333354 216.001351 347.001202 215.333503 348.999133 216.001351 L 348.999133 214.000614 L 356.00031 212.998842 L 358.001047 211.000911 L 361.999715 211.000911 L 367.000154 208.001209 C 368.333044 208.66625 368.666968 208.001209 367.99912 206.000472 L 369.999857 206.000472 L 370.998822 201.998998 L 370.998822 176.999605 L 369.999857 176.00064 L 369.999857 170.001235 L 366.001189 168.000498 L 366.001189 165.999761 L 362.99868 165.999761 L 356.999275 163.000058 C 354.333496 163.667906 353.334531 163.000058 353.999573 160.999321 L 350.99987 160.999321 L 347.001202 159.00139 L 345.99943 152.999179 L 345.000465 152.999179 L 343.998693 149.000511 L 339.00106 138.999631 L 339.00106 135.999929 L 337.000323 133.999192 C 336.332475 130.665565 337.000323 129.332676 339.00106 130.000524 L 339.00106 127.999786 L 342.999728 122.000381 L 343.998693 122.000381 L 343.998693 117.998907 L 345.99943 117.998907 L 347.001202 113.001274 L 345.99943 109.998765 L 345.99943 106.000097 C 343.998693 106.667945 343.333652 105.666173 343.998693 103.000394 L 342.000762 103.000394 L 337.000323 94.001287 L 334.00062 92.999515 C 334.665662 90.998778 334.00062 90.333736 331.999883 90.998778 L 331.999883 89.000847 L 329.999146 89.000847 L 329.999146 87.00011 L 321.999004 81.99967 L 309.001228 84.999373 L 307.000491 87.00011 L 299.999314 87.999075 L 302.000051 87.999075 L 302.000051 89.000847 L 293.999909 84.000407 C 291.33413 84.665449 290.332359 84.000407 291.000206 81.99967 L 288.000504 81.99967 L 288.000504 79.998933 L 285.999767 78.999968 C 282.66614 79.667815 281.333251 78.999968 282.001099 76.999231 L 280.000361 76.999231 L 274.000956 73.999528 C 274.665998 71.998791 274.000956 71.333749 272.000219 71.998791 L 272.000219 63.998649 L 269.999482 62.000718 C 270.66733 57.334202 269.999482 54.334499 267.998745 52.998804 C 265.332966 53.666652 264.334001 52.998804 264.999042 51.000873 L 253.999198 49.999101 L 252.001267 48.00117 C 245.999055 48.666212 243.333277 48.00117 244.001124 46.000433 Z M 144.00075 92.000549 L 144.00075 92.999515 L 174.000581 92.999515 Z M 107.998706 94.001287 C 108.666554 95.999218 107.998706 96.667065 106.000775 95.999218 L 106.000775 100.000692 L 109.000478 105.001131 L 112.000181 106.000097 C 113.33307 105.332249 113.666994 106.000097 112.999146 108.000834 L 119.001357 111.999502 C 118.33351 113.332391 119.001357 113.666315 120.999288 113.001274 L 120.999288 114.999205 L 123.000025 114.999205 L 123.000025 116.999942 L 128.000465 119.999644 L 130.001202 119.999644 L 131.999133 122.999347 C 133.332023 122.334305 133.665946 122.999347 133.000905 125.000084 L 136.999573 127.000821 C 138.332462 126.332973 138.666386 127.000821 138.001344 128.998752 L 141.001047 130.000524 C 142.333936 129.332676 142.66786 130.000524 142.000012 132.001261 L 147.000452 133.999192 L 150.000155 138.999631 L 155.000594 141.999334 C 156.333484 141.334292 156.667408 141.999334 155.99956 144.000071 L 158.999262 144.000071 L 158.999262 146.000808 L 161.998965 147.998739 C 161.333923 149.334434 161.998965 149.665552 163.999702 149.000511 L 163.999702 151.001248 L 220.999663 152.000213 L 168.001176 152.999179 L 226.000103 152.999179 L 226.999068 154.00095 L 231.000543 154.00095 L 231.000543 155.998881 L 234.000245 155.998881 C 233.332397 157.999618 234.000245 158.667466 236.000982 157.999618 L 239.000685 163.000058 L 244.001124 166.998726 C 243.333277 168.334421 244.001124 168.665539 245.999055 168.000498 L 245.999055 171.0002 L 247.999792 171.0002 L 248.998758 176.999605 L 248.998758 192.99989 L 250.00053 193.998855 L 247.999792 200.001067 C 248.66764 201.998998 247.999792 202.666845 245.999055 201.998998 L 245.999055 206.000472 L 244.001124 206.000472 L 242.999353 211.000911 L 240.998616 211.999877 C 239.000685 211.332029 238.332837 211.999877 239.000685 214.000614 L 236.999948 214.000614 L 236.999948 216.001351 L 234.999211 217.000317 C 232.333432 216.332469 231.334466 217.000317 231.999508 219.001054 L 228.999805 219.001054 L 228.999805 220.998985 L 217.000995 222.999722 L 220.999663 223.998687 L 174.000581 223.998687 L 171.000879 227.001196 L 171.000879 276.99998 L 172.99881 280.998648 L 234.000245 280.998648 L 234.000245 279.000717 L 250.00053 277.998946 L 248.998758 276.99998 L 253.999198 276.001015 L 258.999637 273.001312 C 261.665416 273.666354 262.667188 273.001312 261.99934 271.000575 C 264.000077 271.665617 265.66689 271.000575 266.99978 268.999838 C 269.000517 269.667686 269.665558 268.999838 269.000517 266.999101 L 272.999185 266.000135 C 274.332074 266.667983 274.665998 266.000135 274.000956 263.999398 L 277.000659 263.999398 L 279.001396 260.00073 L 282.001099 258.998959 L 282.001099 257.001028 L 285.999767 257.001028 L 290.001241 252.000588 C 291.33413 252.66563 291.668054 252.000588 291.000206 249.999851 L 293.000943 249.999851 L 299.000348 241.999709 C 298.332501 239.998972 299.000348 239.33393 301.001086 239.998972 L 301.001086 236.999269 L 302.999017 236.999269 L 302.999017 233.999566 L 304.999754 233.999566 L 305.998719 230.999864 C 305.333677 228.334085 305.998719 227.332314 307.999456 228.000161 L 309.001228 222.000756 L 310.000193 223.998687 L 310.999159 219.001054 C 310.334117 214.334538 310.999159 212.333801 312.999896 212.998842 L 312.999896 206.000472 L 315.000633 204.9987 L 315.000633 170.001235 L 313.998861 171.999166 L 312.999896 171.999166 L 312.999896 163.999023 L 310.999159 163.000058 L 310.000193 152.999179 L 307.999456 152.999179 C 309.332346 148.332663 308.667304 146.331926 305.998719 146.999774 L 304.999754 144.000071 C 305.667601 141.999334 304.999754 141.334292 302.999017 141.999334 L 302.999017 138.999631 L 301.001086 138.999631 C 301.666127 136.333853 300.667162 134.667039 298.001383 133.999192 C 298.666425 132.001261 298.001383 131.333413 296.000646 132.001261 L 296.000646 130.000524 L 293.999909 130.000524 L 293.000943 127.000821 C 291.000206 127.665863 290.332359 127.000821 291.000206 125.000084 L 288.999469 125.000084 L 288.999469 122.999347 L 285.999767 122.000381 C 286.667614 119.999644 285.999767 119.334603 283.999029 119.999644 L 283.999029 117.998907 L 282.001099 117.998907 L 282.001099 116.000976 L 277.000659 113.001274 C 274.999922 113.666315 274.332074 113.001274 274.999922 111.000537 L 269.999482 108.000834 C 267.333703 108.665876 266.334738 108.000834 266.99978 106.000097 L 263.001111 106.000097 L 263.001111 103.99936 L 250.00053 100.999657 L 252.001267 100.000692 L 252.001267 98.99892 L 245.00009 98.99892 L 244.001124 97.000989 L 237.998913 97.000989 L 236.999948 95.999218 L 225.001137 95.999218 L 223.0004 94.001287 Z M 93.999159 103.99936 L 93.999159 106.999062 L 92.001228 106.999062 L 92.001228 257.999993 C 93.999159 257.332145 94.667007 258.667841 93.999159 261.998661 L 101.000336 260.999696 C 102.333225 261.667543 102.667149 260.999696 101.999301 258.998959 C 104.000038 259.666806 105.666852 258.998959 106.999741 257.001028 C 108.33263 257.666069 108.666554 257.001028 107.998706 255.000291 C 110.667291 255.665332 112.668028 254.666367 114.000918 252.000588 C 115.333807 252.66563 115.667731 252.000588 114.999883 249.999851 L 117.999586 249.000885 C 119.332475 249.665927 119.666399 249.000885 119.001357 247.000148 L 120.999288 247.000148 L 120.999288 244.999411 C 123.667873 245.667259 125.665804 244.665487 126.998694 241.999709 C 128.334389 242.667556 128.665507 241.999709 128.000465 239.998972 L 130.001202 239.998972 L 130.001202 238.001041 L 133.99987 236.999269 C 135.33276 237.667117 135.666683 236.999269 134.998836 235.001338 L 136.999573 235.001338 L 136.999573 233.000601 L 139.999275 233.000601 L 139.999275 230.999864 L 145.998681 228.000161 C 147.334376 228.668009 147.665494 228.000161 147.000452 225.999424 C 149.666231 226.667272 151.666968 225.6655 152.999857 222.999722 C 154.332747 223.667569 154.666671 222.999722 153.998823 220.998985 L 157.001331 220.998985 L 158.999262 217.000317 L 161 217.000317 C 160.332152 214.334538 161 212.333801 163.000737 211.000911 C 163.665778 207.667285 163.000737 206.000472 161 206.000472 L 161 192.99989 L 163.000737 192.000924 L 163.000737 190.000187 L 161 179.999308 L 161 171.999166 L 161.998965 171.0002 C 162.666813 167.666574 162.332889 165.665837 161 165.000795 L 161 155.998881 L 157.001331 154.00095 L 155.99956 151.001248 C 153.998823 151.666289 153.333781 151.001248 153.998823 149.000511 L 152.000892 149.000511 L 152.000892 146.999774 L 144.999715 144.000071 L 142.000012 138.999631 L 139.00031 138.999631 L 136.999573 135.000963 L 133.000905 132.001261 C 131.000168 132.666302 130.33232 132.001261 131.000168 130.000524 L 128.000465 130.000524 L 128.000465 127.999786 L 125.000763 127.000821 C 125.665804 125.000084 125.000763 124.332236 123.000025 125.000084 L 123.000025 122.999347 L 117.00062 117.998907 L 114.000918 117.998907 L 112.999146 114.999205 C 111.001215 115.667052 110.333367 114.999205 111.001215 113.001274 L 109.000478 113.001274 L 109.000478 111.000537 L 106.000775 111.000537 L 106.000775 108.999799 L 104.000038 108.000834 C 101.999301 108.665876 101.33426 108.000834 101.999301 106.000097 L 98.999599 106.000097 L 98.999599 103.99936 Z M 163.000737 173.000937 L 161.998965 178.001377 L 163.000737 178.001377 Z M 317.00137 179.000342 L 315.999598 197.001364 L 317.00137 197.001364 Z M 163.000737 195.000627 L 161.998965 198.000329 L 163.000737 198.000329 Z M 90.999457 228.000161 L 90.000491 238.001041 L 90.999457 238.001041 Z M 153.998823 228.999127 L 153.998823 230.999864 C 151.333044 230.332016 150.334079 230.999864 150.99912 233.000601 L 147.000452 236.000304 C 144.999715 235.332456 144.334673 236.000304 144.999715 238.001041 L 142.000012 238.001041 L 142.000012 239.998972 L 139.999275 241.000743 C 138.001344 240.332896 137.333497 241.000743 138.001344 242.998674 L 136.000607 242.998674 L 136.000607 244.999411 L 133.000905 244.999411 L 133.000905 247.000148 L 128.000465 249.999851 C 125.999728 249.332003 125.334686 249.999851 125.999728 252.000588 L 120.999288 255.000291 C 119.001357 254.332443 118.33351 255.000291 119.001357 257.001028 L 112.999146 260.999696 C 113.666994 262.332585 112.999146 262.666509 111.001215 261.998661 L 111.001215 263.999398 L 109.000478 265.00117 L 106.000775 265.00117 L 104.000038 268.999838 C 101.33426 268.33199 99.667446 269.333762 98.999599 271.999541 C 96.998862 271.334499 96.33382 271.999541 96.998862 274.000278 L 95.000931 274.000278 L 93.999159 276.99998 L 93.999159 279.000717 L 92.001228 279.999683 L 92.001228 382.99976 L 95.999896 385.000497 L 98.999599 383.998726 C 101.000336 384.666573 101.665377 383.998726 101.000336 382.000795 L 107.998706 377.000355 C 109.334402 377.665397 109.66552 377.000355 109.000478 374.999618 L 111.001215 374.999618 L 112.999146 371.999915 C 114.332035 372.667763 114.665959 371.999915 114.000918 369.999178 L 115.998849 369.999178 L 115.998849 368.001247 L 119.001357 366.999476 C 120.334247 367.667324 120.665364 366.999476 120.000323 364.998739 L 125.000763 363.000808 L 126.998694 360.001105 C 128.334389 360.666147 128.665507 360.001105 128.000465 358.000368 L 130.001202 358.000368 L 130.001202 355.999631 L 133.000905 355.999631 L 136.999573 352.999928 L 141.001047 347.999489 C 142.333936 348.667336 142.66786 347.999489 142.000012 345.998752 L 150.99912 341.001118 L 152.999857 337.998609 L 155.99956 336.000678 C 158.665339 336.000678 159.66711 334.333865 158.999262 331.000239 L 161 331.000239 L 161 276.001015 L 161.998965 274.999243 L 161 230.999864 C 159.66711 228.999127 157.332449 228.334085 153.998823 228.999127 Z M 183.998655 282.00042 L 183.998655 282.999385 L 210.998784 282.999385 Z M 183.998655 282.00042 " stroke="#ffffff" stroke-width="1" stroke-opacity="1" stroke-miterlimit="4"/></g><path stroke-linecap="butt" transform="matrix(1.392065, 0, 0, 1.392065, -22.313886, -22.812941)" fill-opacity="1" fill="#ffffff" fill-rule="nonzero" stroke-linejoin="miter" d="M 250.500012 182.000045 L 250.999495 191.498636 L 250.00053 191.498636 Z M 250.500012 182.000045 " stroke="#ffffff" stroke-width="1" stroke-opacity="1" stroke-miterlimit="4"/><path stroke-linecap="butt" transform="matrix(1.392065, 0, 0, 1.392065, -22.313886, -22.812941)" fill-opacity="1" fill="#180a41" fill-rule="nonzero" stroke-linejoin="miter" d="M 223.499883 65.00042 L 223.999366 66.498868 L 223.0004 70.00086 L 220.000698 71.499308 L 213.499004 79.998933 C 209.034526 81.199937 206.200382 80.700454 204.999379 78.500485 C 204.600915 74.367125 205.265957 71.532981 207.000116 70.00086 L 221.998629 68.000123 Z M 116.501138 97.999955 L 130.500685 98.99892 L 132.498616 97.999955 L 134.499353 97.999955 L 224.498849 98.99892 L 225.50062 100.000692 L 238.501202 100.999657 C 260.032276 105.800865 276.865967 115.299455 288.999469 129.501041 C 296.466456 136.698643 302.131937 145.700557 305.998719 156.50117 L 310.999159 177.499088 L 310.999159 199.498778 L 309.001228 210.498623 L 302.999017 227.500679 C 297.866691 237.70079 291.033879 246.200415 282.500581 252.999554 C 271.632622 263.466243 257.633075 270.801343 240.499133 274.999243 L 226.499586 276.001015 L 225.50062 276.99998 L 176.500801 276.99998 L 174.999547 275.498726 L 174.999547 229.49861 L 176.500801 228.000161 L 219.501215 228.000161 L 224.498849 227.001196 C 232.765569 224.265265 239.601186 220.101038 245.00009 214.500097 L 253.999198 197.500847 L 255.000969 182.499528 C 253.199464 173.09915 249.865838 165.601297 245.00009 160.000355 L 227.501357 149.000511 L 218.499443 146.999774 L 196.499754 146.999774 L 195.500788 147.998739 L 171.500362 147.998739 L 162.501254 143.001105 L 112.999146 101.998623 L 112.000181 99.501209 Z M 122.00106 100.999657 L 120.000323 103.000394 L 123.998991 108.999799 L 153.998823 132.001261 C 155.334518 131.333413 155.665636 132.001261 155.000594 133.999192 L 163.000737 138.000666 L 163.999702 141.000368 L 169.999107 144.999036 L 179.999987 144.999036 L 180.998952 146.000808 L 183.998655 144.999036 C 186.667239 144.333995 188.667977 144.667919 190.000866 146.000808 L 191.998797 144.999036 L 220.999663 144.999036 C 221.667511 146.331926 223.665442 146.66585 226.999068 146.000808 L 244.001124 155.998881 L 253.999198 171.999166 C 253.999198 176.00064 255.000969 179.665384 256.9989 182.999011 L 256.9989 184.999748 L 255.999935 198.999295 L 245.999055 217.000317 L 234.000245 225.999424 L 220.000698 230.999864 L 209.000853 230.999864 L 207.999081 230.000898 L 179.001021 230.000898 L 176.001318 230.999864 L 176.001318 239.998972 L 177.999249 247.000148 L 177.999249 263.999398 L 176.001318 268.999838 L 177.000284 274.999243 L 179.999987 276.001015 L 182.000724 274.999243 L 220.000698 274.999243 L 220.999663 274.000278 L 233.00128 274.000278 C 236.999948 271.999541 242.334311 271.000575 248.998758 271.000575 L 264.999042 263.999398 C 269.665558 257.999993 275.998887 252.999554 283.999029 249.000885 C 290.666282 243.666522 296.000646 237.333193 299.999314 230.000898 L 304.000788 214.000614 C 303.33294 211.332029 304.000788 210.333064 305.998719 211.000911 L 309.001228 201.000032 L 309.001228 190.000187 L 310.000193 189.001222 L 309.001228 187.99945 L 309.001228 178.001377 C 307.000491 176.00064 306.332643 173.000937 307.000491 168.999463 L 304.999754 165.999761 L 302.999017 152.999179 L 293.999909 138.000666 L 291.999172 135.999929 L 280.999327 125.999049 L 280.999327 124.001118 L 269.000517 114.000239 L 256.9989 108.000834 L 239.99965 103.000394 L 226.999068 100.999657 L 225.001137 100.999657 L 221.998629 101.998623 L 217.000995 100.999657 L 204.999379 101.998623 L 195.001306 101.998623 L 193.999534 100.999657 Z M 122.00106 100.999657 " stroke="#180a41" stroke-width="1" stroke-opacity="1" stroke-miterlimit="4"/><path stroke-linecap="butt" transform="matrix(1.392065, 0, 0, 1.392065, -22.313886, -22.812941)" fill-opacity="1" fill="#180a41" fill-rule="nonzero" stroke-linejoin="miter" d="M 97.50115 109.998765 L 110.498926 119.000679 L 157.001331 159.500873 L 157.001331 176.500123 L 155.99956 179.000342 L 128.499948 198.999295 L 132.498616 193.998855 L 150.99912 179.499825 C 154.801362 175.966967 156.134252 169.967562 155.000594 161.498804 L 144.500232 149.999476 L 141.001047 149.000511 C 141.733435 147.199005 141.233952 146.533964 139.499793 146.999774 C 129.498913 140.001403 120.499806 132.001261 112.499663 122.999347 L 102.498784 114.999205 L 98.999599 114.000239 L 98.000633 116.500459 L 98.000633 137.501183 L 96.998862 140.500886 L 98.000633 141.499851 L 98.000633 170.500717 L 98.999599 171.499683 L 96.998862 178.50086 L 96.998862 189.500705 L 98.999599 212.49936 L 98.000633 214.500097 L 98.999599 217.000317 C 101.533492 217.533472 103.200305 216.700066 104.000038 214.500097 C 101.533492 213.366439 101.367933 212.199109 103.500556 211.000911 C 105.234715 210.467756 105.734198 211.301162 104.999004 213.501131 L 107.499224 211.999877 L 126.499211 198.999295 L 124.50128 201.998998 L 96.998862 220.998985 L 95.999896 218.498765 L 95.999896 111.500019 Z M 154.501112 235.001338 L 157.001331 235.500821 L 157.001331 326.499282 C 156.066906 330.565296 153.90061 333.39944 150.499637 334.998907 L 109.499961 369.000213 L 99.499081 379.001092 L 95.999896 380.000058 L 95.999896 280.499166 L 100.500853 274.999243 Z M 152.999857 241.000743 L 142.000012 247.000148 L 120.999288 263.000433 C 119.001357 262.332585 118.33351 263.000433 119.001357 265.00117 L 117.00062 265.00117 L 117.00062 266.999101 L 106.999741 274.999243 L 101.999301 276.99998 L 96.998862 285.000122 L 96.998862 295.001002 L 98.000633 295.999967 L 98.000633 326.998765 L 96.998862 328.000536 L 96.998862 347.000523 L 98.000633 347.999489 L 98.000633 369.000213 L 96.998862 369.999178 C 96.33382 372.667763 96.667744 374.665694 98.000633 376.00139 C 97.332786 377.334279 98.000633 377.665397 100.00137 377.000355 L 109.000478 366.999476 C 110.333367 367.667324 110.667291 367.3334 109.999444 366.00051 L 128.999431 352.000963 L 136.999573 342.999049 L 145.998681 334.998907 L 147.999418 334.998907 L 149.001189 333.000976 L 152.000892 331.000239 L 155.000594 326.998765 L 155.000594 307.998778 L 153.998823 306.999812 L 153.998823 282.999385 L 155.000594 282.00042 L 155.000594 260.00073 L 153.998823 258.998959 L 153.998823 241.999709 Z M 207.499599 295.001002 L 222.500918 295.999967 L 226.999068 300.500924 L 228.00084 304.00011 C 226.199335 303.267722 225.534293 303.767205 226.000103 305.501364 C 224.198598 306.233751 223.533556 307.7322 223.999366 309.999515 C 222.200667 310.734708 221.532819 310.23242 221.998629 308.501066 L 220.50018 306.999812 L 209.500336 306.000847 L 206.00115 303.500627 L 204.999379 297.501222 Z M 207.499599 295.001002 " stroke="#180a41" stroke-width="1" stroke-opacity="1" stroke-miterlimit="4"/><path stroke-linecap="butt" transform="matrix(1.392065, 0, 0, 1.392065, -22.313886, -22.812941)" fill-opacity="1" fill="#0b7dbb" fill-rule="nonzero" stroke-linejoin="miter" d="M 288.499986 86.001144 L 289.498952 87.999075 Z M 317.500853 87.00011 L 322.501292 87.00011 L 331.000917 95.499735 L 340.998991 107.501351 L 342.000762 114.499722 L 332.998848 129.501041 L 332.998848 134.498674 L 340.000025 150.498959 L 340.998991 156.50117 L 346.498913 163.999023 L 360.501266 168.999463 L 364.999417 172.498648 L 366.001189 174.499386 L 367.000154 195.50011 C 365.532573 196.367189 365.198649 198.367926 366.001189 201.499515 L 363.500969 204.9987 L 352.501124 208.001209 L 342.999728 214.500097 L 337.999288 230.500381 L 334.00062 238.500523 L 332.998848 244.499929 L 342.999728 260.500213 L 342.999728 266.499618 L 324.499223 287.999825 L 319.498784 288.998791 C 314.09988 285.73251 307.600992 283.566214 299.999314 282.499903 L 305.998719 281.500937 C 303.599518 279.834124 300.265892 279.334641 296.000646 279.999683 C 296.665688 277.199212 296.000646 276.034688 293.999909 276.500497 L 293.999909 271.500058 L 299.999314 263.499916 L 293.999909 267.50139 C 306.933145 256.100275 316.934024 241.766804 323.999741 224.500976 L 329.00018 205.500989 L 329.999146 178.50086 L 326.000478 157.500136 L 315.999598 135.500446 C 310.466003 125.698799 303.633191 117.199174 295.501163 109.998765 L 291.000206 106.49958 L 293.500426 108.000834 L 294.998874 107.501351 L 290.001241 101.49914 L 288.999469 97.000989 C 291.000206 97.666031 291.668054 97.000989 291.000206 95.000252 L 288.999469 94.500769 L 292.498654 92.999515 L 300.498797 95.000252 L 300.498797 94.001287 L 298.001383 92.500032 L 305.499236 92.000549 Z M 309.001228 250.998816 L 307.999456 254.001325 L 309.001228 255.000291 L 310.999159 252.000588 Z M 291.499689 87.999075 L 292.498654 89.999812 Z M 288.499986 103.99936 L 289.498952 106.000097 Z M 154.501112 181.00108 C 156.033233 180.532464 156.532716 181.031946 155.99956 182.499528 L 157.001331 183.501299 L 157.001331 194.501144 C 158.533453 196.633767 158.867377 199.967394 158.000297 204.499217 L 157.001331 204.499217 C 158.000297 199.832702 157.500814 197.666406 155.500077 198.000329 L 96.499379 241.000743 L 95.999896 224.500976 Z M 292.498654 268.000873 L 291.499689 269.998803 Z M 292.498654 268.000873 " stroke="#0b7dbb" stroke-width="1" stroke-opacity="1" stroke-miterlimit="4"/><path stroke-linecap="butt" transform="matrix(1.392065, 0, 0, 1.392065, -22.313886, -22.812941)" fill-opacity="1" fill="#01072d" fill-rule="nonzero" stroke-linejoin="miter" d="M 121.498771 100.999657 L 193.500051 100.999657 L 194.499017 101.998623 L 204.499896 101.998623 L 216.498706 100.999657 L 221.499146 101.998623 L 224.498849 100.999657 L 226.499586 100.999657 L 239.500168 103.000394 L 256.499417 108.000834 L 268.501034 114.000239 L 280.999327 124.001118 L 280.999327 125.499567 L 291.499689 135.999929 L 293.999909 137.501183 L 302.999017 152.499696 L 304.999754 165.500278 L 307.000491 168.49998 C 306.599221 172.565994 307.267069 175.565697 309.001228 177.499088 L 309.001228 187.499967 L 310.000193 188.498933 L 309.001228 189.500705 L 309.001228 200.500549 L 305.998719 211.000911 C 304.000788 210.201178 303.33294 211.034584 304.000788 213.501131 L 299.999314 229.49861 C 295.734068 237.232174 290.234146 243.733868 283.499547 249.000885 C 276.099906 252.932208 269.766577 257.932647 264.49956 263.999398 L 248.499275 271.000575 C 242.165946 271.000575 236.834389 271.999541 232.498991 274.000278 L 220.50018 274.000278 L 219.501215 274.999243 L 181.501241 274.999243 L 179.500504 276.001015 L 177.000284 274.999243 L 176.001318 268.500355 L 177.999249 263.499916 L 177.999249 246.500666 L 176.001318 239.499489 L 176.001318 230.999864 L 178.498732 230.000898 L 207.499599 230.000898 L 208.50137 230.999864 L 219.501215 230.999864 L 233.500762 225.999424 L 245.999055 216.500834 L 255.999935 198.499812 L 256.9989 184.500265 L 256.9989 182.499528 C 255.000969 179.833749 253.999198 176.166199 253.999198 171.499683 L 244.001124 155.998881 L 226.499586 146.000808 C 223.367997 146.800542 221.36726 146.466618 220.50018 144.999036 L 191.499314 144.999036 L 189.501383 146.000808 C 188.634304 144.533227 186.633566 144.199303 183.499172 144.999036 L 180.499469 146.000808 L 179.500504 144.999036 L 169.499625 144.999036 L 163.999702 140.500886 L 162.501254 138.000666 L 155.000594 133.999192 C 155.732982 132.200493 155.233499 131.532645 153.49934 132.001261 L 123.998991 108.500317 L 120.000323 102.500912 Z M 121.498771 100.999657 " stroke="#01072d" stroke-width="1" stroke-opacity="1" stroke-miterlimit="4"/><path stroke-linecap="butt" transform="matrix(1.392065, 0, 0, 1.392065, -22.313886, -22.812941)" fill-opacity="1" fill="#01072d" fill-rule="nonzero" stroke-linejoin="miter" d="M 98.999599 114.000239 L 102.498784 114.999205 L 112.499663 122.999347 L 137.499056 146.000808 L 141.001047 146.999774 C 140.265853 148.801279 140.765336 149.46632 142.499495 149.000511 L 153.998823 159.500873 C 155.800328 162.031959 156.134252 166.033434 155.000594 171.499683 C 153.333781 176.834046 150.499637 181.00108 146.500969 184.000782 L 105.501293 214.000614 L 104.999004 211.000911 L 101.999301 212.49936 C 104.867118 213.966941 104.698753 215.465389 101.499819 217.000317 C 99.29985 217.732704 98.466443 217.233221 98.999599 215.499062 L 98.000633 213.501131 C 99.532754 212.701398 99.866678 210.700661 98.999599 207.49892 L 98.000633 206.499954 L 96.998862 189.500705 L 96.998862 178.50086 L 98.999599 171.499683 L 98.000633 170.500717 L 98.000633 141.499851 L 96.998862 138.500149 L 98.000633 137.501183 L 98.000633 116.500459 Z M 152.500375 241.000743 L 153.998823 241.500226 L 153.998823 258.499476 L 155.000594 259.501248 L 155.000594 281.500937 L 153.998823 282.499903 L 153.998823 306.500329 L 155.000594 307.499295 L 155.000594 326.499282 L 151.498603 331.000239 L 149.001189 332.498687 L 147.499935 334.998907 L 145.499198 334.998907 L 136.999573 342.499566 L 128.499948 352.000963 L 109.999444 365.501028 C 110.532599 367.033149 110.033117 367.532632 108.500995 366.999476 L 99.499081 377.000355 C 98.034306 377.533511 97.532017 377.034028 98.000633 375.499101 C 96.533052 374.699367 96.199128 372.69863 96.998862 369.499696 L 98.000633 368.50073 L 98.000633 347.500006 L 96.998862 346.50104 L 96.998862 327.501053 L 98.000633 326.499282 L 98.000633 295.500485 L 96.998862 294.498713 L 96.998862 284.50064 L 101.499819 276.99998 L 106.500258 274.999243 L 117.00062 266.999101 L 117.00062 265.00117 L 119.001357 265.00117 C 118.266164 263.199665 118.765646 262.534623 120.499806 263.000433 L 141.50053 247.000148 Z M 152.500375 241.000743 " stroke="#01072d" stroke-width="1" stroke-opacity="1" stroke-miterlimit="4"/><path stroke-linecap="butt" transform="matrix(1.392065, 0, 0, 1.392065, -22.313886, -22.812941)" fill-opacity="1" fill="#8593b7" fill-rule="nonzero" stroke-linejoin="miter" d="M 230.50106 48.00117 L 239.500168 48.00117 L 244.500607 49.999101 L 255.500452 51.000873 L 264.49956 54.000575 L 266.99978 56.500795 L 269.999482 71.499308 L 274.500439 76.999231 C 282.567927 79.934393 289.566298 83.933061 295.501163 89.000847 L 302.499534 90.998778 L 316.499081 84.999373 L 322.501292 84.999373 L 331.000917 92.500032 L 342.999728 107.501351 L 343.998693 114.499722 L 334.999585 129.501041 L 334.999585 134.498674 L 340.998991 147.499256 L 343.998693 158.499101 L 348.49965 163.000058 C 356.101329 164.400293 362.266293 167.234437 367.000154 171.499683 L 367.99912 173.50042 L 369.000891 195.50011 C 367.334078 196.499075 367.000154 198.833736 367.99912 202.501286 L 365.4989 206.000472 L 350.500387 211.000911 L 345.000465 214.500097 L 340.998991 228.499644 L 334.999585 241.500226 L 334.999585 245.498894 L 345.000465 260.500213 L 345.000465 266.499618 L 326.49996 288.998791 C 324.367338 290.533718 321.033711 290.867642 316.499081 290.000562 L 305.499236 285.000122 L 298.500866 285.000122 L 289.498952 292.001299 L 276.501176 298.000704 L 271.001254 302.498855 L 269.000517 317.500174 L 264.49956 323.999062 L 246.501344 328.000536 L 230.50106 328.999502 C 226.165662 324.66691 223.0004 319.166987 220.999663 312.499734 L 217.500478 309.000549 L 208.50137 307.998778 L 204.000413 306.000847 L 202.998642 296.49945 L 205.498862 293.000265 L 230.50106 293.000265 C 231.500025 291.333451 233.834686 290.999528 237.49943 292.001299 L 247.50031 290.000562 L 266.500297 282.999385 C 282.500581 275.667091 295.666722 265.500653 305.998719 252.500071 C 313.600398 243.099693 319.599803 232.099848 323.999741 219.500536 L 328.001215 199.498778 L 328.001215 175.501157 L 323.999741 156.50117 L 315.999598 138.500149 C 309.666269 127.500304 301.834492 117.998907 292.498654 109.998765 C 273.967283 92.867629 247.632196 83.534597 213.499004 81.99967 C 212.69927 83.467251 210.701339 83.801175 207.499599 82.998636 L 202.998642 80.501222 C 202.067022 74.232433 203.234353 70.0654 206.500633 68.000123 L 212.500038 65.999386 L 217.500478 65.999386 L 220.999663 62.5002 C 223.199632 56.700027 226.3677 51.867952 230.50106 48.00117 Z M 233.00128 49.000136 L 231.000543 49.999101 L 220.000698 67.001157 L 207.999081 68.999088 C 204.665455 70.331978 203.332566 73.999528 204.000413 79.998933 L 206.00115 81.000705 L 228.999805 81.000705 L 253.000232 86.001144 L 271.001254 92.999515 L 296.000646 109.998765 C 304.000788 117.333866 310.668041 125.999049 315.999598 135.999929 L 326.000478 157.999618 L 329.999146 179.000342 L 329.00018 206.000472 L 323.999741 225.000459 C 318.665377 237.667117 311.667006 249.000885 302.999017 258.998959 C 292.333096 270.332727 279.332514 279.334641 264.000077 285.999088 L 240.998616 293.000265 L 218.998926 293.99923 L 207.000116 293.99923 L 204.000413 296.998933 L 204.999379 304.999075 L 209.000853 306.999812 L 218.998926 307.998778 L 225.001137 317.000691 L 228.999805 325.999799 L 233.00128 328.000536 L 250.00053 325.999799 L 264.999042 322.001131 L 266.99978 318.998622 L 269.000517 303.001144 L 274.000956 298.000704 C 283.333988 294.667078 291.668054 289.666638 299.000348 282.999385 L 304.999754 282.999385 L 320.001073 288.998791 L 324.998706 287.999825 L 342.999728 266.999101 L 342.999728 260.999696 L 332.998848 244.999411 L 334.00062 239.000006 L 337.999288 230.999864 L 342.999728 214.999579 L 353.000607 208.001209 L 364.000452 204.9987 L 366.001189 201.998998 C 365.333341 198.665371 365.667265 196.66744 367.000154 195.999592 L 366.001189 174.998868 L 364.999417 173.000937 L 361.000749 168.999463 L 347.001202 163.999023 L 340.998991 157.000653 L 340.000025 151.001248 L 332.998848 135.000963 L 332.998848 130.000524 L 342.000762 114.999205 L 340.998991 108.000834 L 323.000775 87.00011 L 318.000336 87.00011 L 305.998719 92.000549 L 298.001383 92.000549 C 290.666282 86.001144 282.332216 81.334629 272.999185 78.001002 L 267.998745 70.999825 L 266.000814 59.001015 C 264.000077 55.667389 261.000374 53.666652 256.9989 52.998804 Z M 233.00128 49.000136 " stroke="#8593b7" stroke-width="1" stroke-opacity="1" stroke-miterlimit="4"/><path stroke-linecap="butt" transform="matrix(1.392065, 0, 0, 1.392065, -22.313886, -22.812941)" fill-opacity="1" fill="#8593b7" fill-rule="nonzero" stroke-linejoin="miter" d="M 110.498926 95.999218 L 210.499301 95.999218 L 211.501073 97.000989 L 235.498693 97.999955 L 251.498978 101.998623 L 272.499702 111.999502 L 293.999909 131.498972 L 304.000788 145.501325 L 310.999159 164.501312 L 313.998861 181.500562 L 313.998861 195.50011 L 310.999159 211.500394 L 302.000051 233.500084 C 296.733034 242.232614 290.234146 249.733273 282.500581 255.999256 C 271.83466 265.666212 258.500155 272.667388 242.49987 276.99998 L 231.500025 277.998946 L 230.50106 279.000717 L 211.501073 279.000717 L 210.499301 279.999683 L 181.501241 279.999683 C 180.698701 278.532101 178.70077 278.200984 175.49903 279.000717 L 172.99881 276.500497 L 172.99881 227.500679 L 174.500064 227.001196 L 175.49903 225.999424 L 217.500478 225.999424 C 218.300212 224.534649 220.300949 224.200725 223.499883 225.000459 C 233.099493 221.93341 240.600152 216.767412 245.999055 209.499657 L 252.001267 196.499075 L 252.001267 178.50086 C 250.067876 171.432337 246.899808 165.601297 242.49987 160.999321 C 237.300199 156.200919 230.96687 152.533369 223.499883 149.999476 L 169.499625 149.999476 L 149.001189 135.000963 C 149.733577 133.199458 149.234094 132.534416 147.499935 133.000226 L 109.000478 100.500174 L 107.998706 97.000989 Z M 114.000918 97.000989 L 112.999146 97.999955 C 111.001215 97.332107 110.333367 98.333878 111.001215 100.999657 L 163.999702 144.999036 C 166.000439 146.999774 169.334066 148.332663 174.000581 149.000511 L 183.998655 149.000511 L 185.000426 147.998739 L 190.000866 149.000511 L 191.998797 147.998739 L 218.998926 147.998739 L 223.999366 149.000511 C 230.666619 151.001248 236.3321 154.00095 240.998616 157.999618 L 248.998758 168.000498 L 253.999198 182.999011 L 253.000232 198.000329 L 245.999055 211.999877 C 240.667498 217.999282 233.666321 222.665798 225.001137 225.999424 L 220.000698 227.001196 L 176.001318 227.001196 L 174.000581 228.999127 L 174.000581 276.001015 L 174.999547 277.998946 L 226.999068 277.998946 L 228.00084 276.99998 L 240.998616 276.001015 C 256.9989 271.999541 270.333406 265.332288 280.999327 255.999256 C 288.334428 249.999851 294.667757 242.998674 299.999314 235.001338 L 307.000491 220.000019 L 312.00093 200.001067 L 312.00093 176.999605 L 310.000193 171.0002 L 310.000193 165.999761 L 302.999017 146.999774 L 293.999909 133.999192 C 281.333251 116.666018 263.001111 105.332249 239.000685 100.000692 L 226.000103 98.99892 L 225.001137 97.999955 L 191.998797 97.999955 L 190.999831 97.000989 Z M 114.000918 97.000989 " stroke="#8593b7" stroke-width="1" stroke-opacity="1" stroke-miterlimit="4"/><path stroke-linecap="butt" transform="matrix(1.392065, 0, 0, 1.392065, -22.313886, -22.812941)" fill-opacity="1" fill="#8593b7" fill-rule="nonzero" stroke-linejoin="miter" d="M 96.499379 106.000097 L 148.4989 147.998739 L 158.999262 158.499101 L 160.001034 172.498648 L 158.999262 173.50042 L 158.999262 214.500097 L 154.501112 219.001054 L 107.499224 254.001325 L 98.500116 260.00073 L 95.000931 260.00073 L 93.999159 255.499773 L 93.999159 109.499282 Z M 95.999896 108.000834 L 95.000931 111.000537 L 95.000931 223.998687 L 95.999896 225.000459 C 97.332786 233.665643 96.998862 241.000743 95.000931 247.000148 L 95.000931 249.000885 C 96.998862 249.665927 97.332786 252.334512 95.999896 257.001028 L 98.000633 257.999993 L 104.000038 255.000291 L 155.99956 216.001351 L 158.000297 211.000911 L 158.000297 197.001364 L 157.001331 195.000627 L 157.001331 184.000782 L 155.99956 182.999011 C 155.334518 179.665384 155.99956 178.001377 158.000297 178.001377 L 158.000297 160.000355 L 145.998681 146.999774 L 100.00137 108.999799 Z M 156.499043 230.999864 L 158.999262 232.501118 L 160.001034 275.498726 L 158.999262 278.501235 L 158.999262 328.500019 L 151.498603 336.999644 C 133.766965 350.266804 117.098833 364.600275 101.499819 380.000058 L 95.500413 382.99976 L 93.999159 381.501312 L 93.999159 280.499166 L 99.499081 273.001312 Z M 155.99956 233.000601 L 101.999301 273.001312 L 95.000931 280.998648 L 95.000931 380.999023 L 100.00137 380.000058 L 149.001189 337.998609 L 158.000297 328.000536 L 158.000297 235.001338 Z M 155.99956 233.000601 " stroke="#8593b7" stroke-width="1" stroke-opacity="1" stroke-miterlimit="4"/></svg>